<svg xmlns="http://www.w3.org/2000/svg" viewBox="0 0 73.71 20"><defs><style>.cls-1{fill:#fdd272;}.cls-2{fill:#ffb626;}.cls-3{fill:#f7931e;}.cls-4{fill:#fdc959;}.cls-5{fill:#f2ac24;}</style></defs><title>Asset 4</title><g id="Layer_2" data-name="Layer 2"><g id="Default_copy" data-name="Default copy"><path class="cls-1" d="M73.37,10.18a6.85,6.85,0,0,1-11.14,7.45,1.94,1.94,0,0,0,0-.35V7.75A6.82,6.82,0,0,1,67,5.85a6.88,6.88,0,0,1,2.52.48,7,7,0,0,1,2.33,1.53A6.9,6.9,0,0,1,73.37,10.18Z" transform="translate(-0.14 -0.14)"/><path class="cls-2" d="M62.25,12.71v4.57a1.94,1.94,0,0,1,0,.35l-.08-.08a6.63,6.63,0,0,1-.95-1.19,6.78,6.78,0,0,0,.58-1.14A6.88,6.88,0,0,0,62.25,12.71Z" transform="translate(-0.14 -0.14)"/><path class="cls-2" d="M62.25,7.75v5a6.88,6.88,0,0,0-.48-2.52A6.78,6.78,0,0,0,61.2,9a6.63,6.63,0,0,1,.95-1.19Z" transform="translate(-0.14 -0.14)"/><path class="cls-1" d="M62.25,3V7.75l-.11.1A6.63,6.63,0,0,0,61.2,9a6.88,6.88,0,0,0-.95-1.19,7,7,0,0,0-2.33-1.53,6.82,6.82,0,0,0-1.38-.38V3a2.86,2.86,0,1,1,5.71,0Z" transform="translate(-0.14 -0.14)"/><path class="cls-1" d="M62.14,17.56l.08.08a2.79,2.79,0,0,1-.81,1.66,2.86,2.86,0,0,1-4,0l0,0c.19-.05.38-.12.56-.19a7,7,0,0,0,2.33-1.53,6.88,6.88,0,0,0,.95-1.19A6.63,6.63,0,0,0,62.14,17.56Z" transform="translate(-0.14 -0.14)"/><path class="cls-3" d="M61.77,10.18a6.88,6.88,0,0,1,0,5,6.78,6.78,0,0,1-.58,1.14A6.87,6.87,0,0,1,61.2,9,6.78,6.78,0,0,1,61.77,10.18Z" transform="translate(-0.14 -0.14)"/><path class="cls-2" d="M61.2,9a6.87,6.87,0,0,0,0,7.33,6.88,6.88,0,0,1-.95,1.19,7,7,0,0,1-2.33,1.53c-.19.07-.37.14-.56.19a2.85,2.85,0,0,1-.82-2V5.95a6.82,6.82,0,0,1,1.38.38,7,7,0,0,1,2.33,1.53A6.88,6.88,0,0,1,61.2,9Z" transform="translate(-0.14 -0.14)"/><path class="cls-1" d="M56.54,17.28a2.85,2.85,0,0,0,.82,2,6.81,6.81,0,0,1-2,.29,6.92,6.92,0,0,1-2.52-.48,6.84,6.84,0,0,1-2.32-1.53l-.26-.27h0V11a2.86,2.86,0,0,0-.72-1.89,6.56,6.56,0,0,1,1-1.25,6.84,6.84,0,0,1,4.85-2,6.67,6.67,0,0,1,1.14.1Z" transform="translate(-0.14 -0.14)"/><path class="cls-1" d="M50.29,17.28h0a2.86,2.86,0,0,1-4.88,2,2.81,2.81,0,0,1-.81-1.67,2.85,2.85,0,0,0,0-.86V11a2.87,2.87,0,0,1,.34-1.35,2.76,2.76,0,0,1,.5-.68,2.85,2.85,0,0,1,4,0l.12.13A6.26,6.26,0,0,0,49,10.18a6.81,6.81,0,0,0,0,5A6.62,6.62,0,0,0,50.29,17.28Z" transform="translate(-0.14 -0.14)"/><path class="cls-2" d="M50.29,11v6.28a6.62,6.62,0,0,1-1.26-2,6.81,6.81,0,0,1,0-5,6.26,6.26,0,0,1,.55-1.08A2.86,2.86,0,0,1,50.29,11Z" transform="translate(-0.14 -0.14)"/><path class="cls-1" d="M50.27,2.72a3,3,0,0,1,0,.38A2.88,2.88,0,0,1,50,4.22a2.93,2.93,0,0,1-.63.87,2.87,2.87,0,0,1-.91.57,2.83,2.83,0,0,1-2.27-.08,2.82,2.82,0,0,1-.86-.63,2.86,2.86,0,0,1-.57-.9,2.78,2.78,0,0,1-.19-1.13h0a1.47,1.47,0,0,1,0-.22c0-.05,0-.11,0-.16a1.21,1.21,0,0,1,0-.14c0-.07,0-.14.05-.21s0-.15.08-.22a.87.87,0,0,1,.05-.13.23.23,0,0,1,0-.05l0,0L45,1.57a1.49,1.49,0,0,1,.13-.2l.1-.14.05-.07L45.38,1l0,0,.12-.11.1-.09a2.89,2.89,0,0,1,.74-.42L46.6.26l.2-.05.1,0a2.75,2.75,0,0,1,.52,0h0l.27,0h0l.2,0,.14,0,.17,0,.06,0,.2.07.09,0,.18.09,0,0L49,.6a1,1,0,0,1,.18.13l.14.11.08.08L49.5,1l0,0,.13.15a1.47,1.47,0,0,1,.14.19,1.88,1.88,0,0,1,.17.28l.08.16a.87.87,0,0,1,.05.13,2.72,2.72,0,0,1,.09.28,1.67,1.67,0,0,1,.05.22A2.16,2.16,0,0,1,50.27,2.72Z" transform="translate(-0.14 -0.14)"/><path class="cls-2" d="M44.56,7.59a2.87,2.87,0,0,1,0,1.16,3.09,3.09,0,0,1-.28.76l-.14.23a2.92,2.92,0,0,1-.75.76l-.19.11-.07,0a2.84,2.84,0,0,1-.81.29,2.78,2.78,0,0,1-1.16,0,2.83,2.83,0,0,1-1-.42,2.86,2.86,0,0,1-.76-.76A2.9,2.9,0,0,1,39,8.68a2.75,2.75,0,0,1,0-1.16,2.83,2.83,0,0,1,.42-1,2.78,2.78,0,0,1,.76-.76l.19-.11a2.56,2.56,0,0,1,.88-.33,2.85,2.85,0,0,1,1.16,0,3,3,0,0,1,1,.43,2.84,2.84,0,0,1,.76.75A2.76,2.76,0,0,1,44.56,7.59Z" transform="translate(-0.14 -0.14)"/><path class="cls-2" d="M44.6,17.63l0,.2a2.76,2.76,0,0,1-.45,1.07,2.84,2.84,0,0,1-.76.75,3,3,0,0,1-1,.43,2.85,2.85,0,0,1-1.16,0,2.56,2.56,0,0,1-.88-.33l-.19-.11a2.78,2.78,0,0,1-.76-.76,2.83,2.83,0,0,1-.42-1,2.75,2.75,0,0,1,0-1.16,2.9,2.9,0,0,1,.45-1.07,2.86,2.86,0,0,1,.76-.76,2.83,2.83,0,0,1,1-.42,2.78,2.78,0,0,1,1.16,0,2.84,2.84,0,0,1,.81.29l.07,0,.19.11a2.87,2.87,0,0,1,1.18,1.74.68.68,0,0,1,0,.1v.51A1.88,1.88,0,0,0,44.6,17.63Z" transform="translate(-0.14 -0.14)"/><path class="cls-4" d="M43.12,10.65l-3.57,2.06L36.7,11.06V7.76l3.64-2.1h0l-.19.11a2.78,2.78,0,0,0-.76.76,2.83,2.83,0,0,0-.42,1,2.75,2.75,0,0,0,0,1.16,2.9,2.9,0,0,0,.45,1.07,2.86,2.86,0,0,0,.76.76,2.83,2.83,0,0,0,1,.42,2.78,2.78,0,0,0,1.16,0A2.84,2.84,0,0,0,43.12,10.65Z" transform="translate(-0.14 -0.14)"/><path class="cls-4" d="M39.56,12.71l3.57,2.06a2.84,2.84,0,0,0-.81-.29,2.78,2.78,0,0,0-1.16,0,2.83,2.83,0,0,0-1,.42,2.86,2.86,0,0,0-.76.76A2.9,2.9,0,0,0,39,16.74a2.75,2.75,0,0,0,0,1.16,2.83,2.83,0,0,0,.42,1,2.78,2.78,0,0,0,.76.76l.19.11h0l-3.66-2.12a2,2,0,0,0,0-.36V14.36Z" transform="translate(-0.14 -0.14)"/><path class="cls-2" d="M39.56,12.71,36.7,14.36v-3.3Z" transform="translate(-0.14 -0.14)"/><path class="cls-2" d="M36.7,14.36v2.92a2,2,0,0,1,0,.36l-4.19-2.42a2.84,2.84,0,0,0,.81.29,3,3,0,0,0,1.16,0,2.79,2.79,0,0,0,.81-.32Z" transform="translate(-0.14 -0.14)"/><path class="cls-3" d="M36.7,12.71v1.65l-1.43.82.17-.11a2.78,2.78,0,0,0,.76-.75,2.93,2.93,0,0,0,.45-1.07A3,3,0,0,0,36.7,12.71Z" transform="translate(-0.14 -0.14)"/><path class="cls-3" d="M36.7,11.06v1.66a3,3,0,0,0-.07-.62,2.85,2.85,0,0,0-.42-1,2.88,2.88,0,0,0-.76-.76l-.19-.11Z" transform="translate(-0.14 -0.14)"/><path class="cls-2" d="M36.7,7.76v3.3l-1.43-.82a2.84,2.84,0,0,0-.88-.33,3,3,0,0,0-1.16,0,2.92,2.92,0,0,0-.75.28Z" transform="translate(-0.14 -0.14)"/><path class="cls-1" d="M32.47,10.2l-.23.14a2.69,2.69,0,0,0-.76.75A2.76,2.76,0,0,0,31,12.16a.32.32,0,0,0,0,.07V11a2.8,2.8,0,0,0,0-.48v-7a2.47,2.47,0,0,0,0-.4V3a1.92,1.92,0,0,0,0-.31v0A2.86,2.86,0,0,1,36.7,3V7.76Z" transform="translate(-0.14 -0.14)"/><path class="cls-3" d="M36.7,12.71a3,3,0,0,1,0,.54,2.93,2.93,0,0,1-.45,1.07,2.78,2.78,0,0,1-.76.75l-.17.11a2.79,2.79,0,0,1-.81.32,3,3,0,0,1-1.16,0,2.84,2.84,0,0,1-.81-.29l-.07,0-.19-.11a2.92,2.92,0,0,1-1.18-1.74,1.18,1.18,0,0,1,0-.14v-1a.32.32,0,0,1,0-.07,2.76,2.76,0,0,1,.45-1.07,2.69,2.69,0,0,1,.76-.75l.23-.14a2.92,2.92,0,0,1,.75-.28,3,3,0,0,1,1.16,0,2.84,2.84,0,0,1,.88.33l.19.11a2.88,2.88,0,0,1,.76.76,2.85,2.85,0,0,1,.42,1A3,3,0,0,1,36.7,12.71Z" transform="translate(-0.14 -0.14)"/><path class="cls-1" d="M32.49,15.22l4.19,2.42a2.85,2.85,0,0,1-5.66,0,2.13,2.13,0,0,0,0-.32V13.19a1.18,1.18,0,0,0,0,.14,2.92,2.92,0,0,0,1.18,1.74l.19.11Z" transform="translate(-0.14 -0.14)"/><path class="cls-1" d="M31,13.19v4.09a2.13,2.13,0,0,1,0,.32,2.13,2.13,0,0,1,0-.32V12.71A2.29,2.29,0,0,0,31,13.19Z" transform="translate(-0.14 -0.14)"/><path class="cls-5" d="M31,12.23v1a2.29,2.29,0,0,1,0-.47A2.35,2.35,0,0,1,31,12.23Z" transform="translate(-0.14 -0.14)"/><path class="cls-1" d="M31,11v1.24a2.35,2.35,0,0,0,0,.48v-2.2A2.8,2.8,0,0,1,31,11Z" transform="translate(-0.14 -0.14)"/><path class="cls-1" d="M31,2.66v0A2.13,2.13,0,0,0,31,3V3.5a3,3,0,0,1-.23.72,2.86,2.86,0,0,1-.64.87,2.79,2.79,0,0,1-.9.57,2.92,2.92,0,0,1-1.14.2,2.89,2.89,0,0,1-1.13-.28,2.82,2.82,0,0,1-.86-.63,2.86,2.86,0,0,1-.57-.9,2.83,2.83,0,0,1-.2-1V3a1.94,1.94,0,0,1,0-.25,0,0,0,0,1,0,0,1.21,1.21,0,0,1,0-.2,1.21,1.21,0,0,1,0-.14,1.28,1.28,0,0,1,.05-.21,1.47,1.47,0,0,1,.08-.22.87.87,0,0,1,.05-.13.23.23,0,0,1,0-.05l.08-.16.08-.14a.78.78,0,0,1,.1-.14A1.32,1.32,0,0,1,26,1.16L26.13,1l0,0L26.3.84l.1-.09a2.89,2.89,0,0,1,.74-.42l.21-.07.2-.05.1,0a2.75,2.75,0,0,1,.52,0h0l.27,0h0l.2,0,.14,0,.17,0,.06,0,.2.07.09,0,.18.09,0,0,.18.11a1,1,0,0,1,.18.13L30,.83l.08.08.12.12,0,0,.13.15a1.47,1.47,0,0,1,.14.19l0,0a1.13,1.13,0,0,1,.12.21l0,0a1,1,0,0,1,.08.17.87.87,0,0,1,.05.13,1.62,1.62,0,0,1,.07.21,2.42,2.42,0,0,1,.07.27A1.7,1.7,0,0,1,31,2.66Z" transform="translate(-0.14 -0.14)"/><path class="cls-1" d="M31,17.28a2.13,2.13,0,0,0,0,.32,2.85,2.85,0,0,1-4.85,1.7,2.78,2.78,0,0,1-.81-1.67,2.74,2.74,0,0,0,0-.84V11a2.8,2.8,0,0,1,.34-1.35,2.76,2.76,0,0,1,.5-.68,2.85,2.85,0,0,1,4,0A2.81,2.81,0,0,1,31,10.52v6.76Z" transform="translate(-0.14 -0.14)"/><path class="cls-2" d="M25.31,7.59a2.78,2.78,0,0,1,0,1.16,2.87,2.87,0,0,1-.28.76l-.14.23a2.92,2.92,0,0,1-.75.76l-.19.11-.07,0a2.88,2.88,0,0,1-.82.29,2.75,2.75,0,0,1-1.16,0,2.83,2.83,0,0,1-1-.42,2.86,2.86,0,0,1-.76-.76,2.9,2.9,0,0,1-.45-1.07,2.75,2.75,0,0,1,0-1.16,2.84,2.84,0,0,1,1.17-1.74l.19-.11A2.71,2.71,0,0,1,22,5.33a2.85,2.85,0,0,1,1.16,0,3,3,0,0,1,1,.43,2.85,2.85,0,0,1,1.2,1.82Z" transform="translate(-0.14 -0.14)"/><path class="cls-2" d="M25.34,17.63a1.23,1.23,0,0,1,0,.2,2.85,2.85,0,0,1-1.2,1.82,3,3,0,0,1-1,.43,2.85,2.85,0,0,1-1.16,0,2.71,2.71,0,0,1-.88-.33l-.19-.11a2.84,2.84,0,0,1-1.17-1.74,2.75,2.75,0,0,1,0-1.16,2.9,2.9,0,0,1,.45-1.07,2.86,2.86,0,0,1,.76-.76,2.83,2.83,0,0,1,1-.42,2.75,2.75,0,0,1,1.16,0,2.88,2.88,0,0,1,.82.29l.07,0,.19.11a2.92,2.92,0,0,1,.75.76,2.83,2.83,0,0,1,.42,1,.92.92,0,0,1,0,.12v.5A1.88,1.88,0,0,0,25.34,17.63Z" transform="translate(-0.14 -0.14)"/><path class="cls-1" d="M23.87,10.65,20.3,12.71l-2.86-1.65V7.76l3.63-2.1h0l-.19.11a2.84,2.84,0,0,0-1.17,1.74,2.75,2.75,0,0,0,0,1.16,2.9,2.9,0,0,0,.45,1.07,2.86,2.86,0,0,0,.76.76,2.83,2.83,0,0,0,1,.42,2.75,2.75,0,0,0,1.16,0A2.88,2.88,0,0,0,23.87,10.65Z" transform="translate(-0.14 -0.14)"/><path class="cls-1" d="M20.3,12.71l3.57,2.06a2.88,2.88,0,0,0-.82-.29,2.75,2.75,0,0,0-1.16,0,2.83,2.83,0,0,0-1,.42,2.86,2.86,0,0,0-.76.76,2.9,2.9,0,0,0-.45,1.07,2.75,2.75,0,0,0,0,1.16,2.84,2.84,0,0,0,1.17,1.74l.19.11h0l-3.66-2.12a2,2,0,0,0,0-.36V14.36Z" transform="translate(-0.14 -0.14)"/><path class="cls-2" d="M20.3,12.71l-2.86,1.65v-3.3Z" transform="translate(-0.14 -0.14)"/><path class="cls-2" d="M17.45,14.36v2.92a2,2,0,0,1,0,.36l-4.07-2.35h0a2.92,2.92,0,0,0,.7.23,3,3,0,0,0,1.16,0,2.79,2.79,0,0,0,.81-.32Z" transform="translate(-0.14 -0.14)"/><path class="cls-3" d="M17.45,12.7v1.66L16,15.18l.17-.11a2.69,2.69,0,0,0,.76-.75,2.76,2.76,0,0,0,.45-1.07A2.66,2.66,0,0,0,17.45,12.7Z" transform="translate(-0.14 -0.14)"/><path class="cls-3" d="M17.45,11.06V12.7a2.89,2.89,0,0,0-1.24-2.35L16,10.23Z" transform="translate(-0.14 -0.14)"/><path class="cls-2" d="M17.45,7.76v3.3L16,10.23a2.84,2.84,0,0,0-.88-.33,3,3,0,0,0-1.16,0,2.61,2.61,0,0,0-.63.22h0Z" transform="translate(-0.14 -0.14)"/><path class="cls-1" d="M17.45,3V7.76l-4.1,2.37a6.84,6.84,0,0,0-1.5-2.27l-.11-.1V3a2.86,2.86,0,1,1,5.71,0Z" transform="translate(-0.14 -0.14)"/><path class="cls-3" d="M17.45,12.7a2.66,2.66,0,0,1-.05.55,2.76,2.76,0,0,1-.45,1.07,2.69,2.69,0,0,1-.76.75l-.17.11a2.79,2.79,0,0,1-.81.32,3,3,0,0,1-1.16,0,2.92,2.92,0,0,1-.7-.23l0,0a6.81,6.81,0,0,0,0-5l0,0A2.61,2.61,0,0,1,14,9.92a3,3,0,0,1,1.16,0,2.84,2.84,0,0,1,.88.33l.19.11a2.84,2.84,0,0,1,1.24,2.35Z" transform="translate(-0.14 -0.14)"/><path class="cls-1" d="M13.35,15.29l4.07,2.35a2.85,2.85,0,0,1-4.85,1.66,2.79,2.79,0,0,1-.81-1.66l.08-.08A6.84,6.84,0,0,0,13.35,15.29Z" transform="translate(-0.14 -0.14)"/><path class="cls-3" d="M13.37,10.18a6.81,6.81,0,0,1,0,5l0,0h0l-.11-.06-.07,0L13,15.07a2.88,2.88,0,0,1-.76-.76,2.85,2.85,0,0,1-.42-1,3,3,0,0,1,0-1.16,2.93,2.93,0,0,1,.45-1.07,2.78,2.78,0,0,1,.76-.75l.23-.14.13-.06Z" transform="translate(-0.14 -0.14)"/><path class="cls-2" d="M13.22,10.2l-.23.14a2.78,2.78,0,0,0-.76.75,2.93,2.93,0,0,0-.45,1.07,3,3,0,0,0,0,.54V7.75l.11.1a6.84,6.84,0,0,1,1.5,2.27Z" transform="translate(-0.14 -0.14)"/><path class="cls-2" d="M13.34,15.28h0a6.84,6.84,0,0,1-1.5,2.27l-.08.08a1.94,1.94,0,0,1,0-.35V12.7a3,3,0,0,0,.07.62,2.85,2.85,0,0,0,.42,1,2.88,2.88,0,0,0,.76.76l.19.11.07,0Z" transform="translate(-0.14 -0.14)"/><path class="cls-1" d="M11.73,17.28a1.94,1.94,0,0,0,0,.35,6.83,6.83,0,0,1-2.24,1.45,6.85,6.85,0,0,1-7.38-1.53A6.86,6.86,0,0,1,.62,10.18,6.9,6.9,0,0,1,2.14,7.86,7,7,0,0,1,4.47,6.33a6.88,6.88,0,0,1,5,0,7,7,0,0,1,2.21,1.42v9.53Z" transform="translate(-0.14 -0.14)"/></g></g></svg>