<svg id="Layer_1" data-name="Layer 1" xmlns="http://www.w3.org/2000/svg" viewBox="0 0 55.79 25.19"><defs><style>.cls-1{fill:#666;stroke:#666;stroke-width:0.29px;}</style></defs><title>logo2</title><g id="Layer_2" data-name="Layer 2"><g id="Isolation_Mode" data-name="Isolation Mode"><path class="cls-1" d="M1.18.38H25.31a1,1,0,0,1,1,1h0a1,1,0,0,1-1,1H24.13a1,1,0,0,0-1,1v20.7a1,1,0,0,1-1,1H16.52a1,1,0,0,1-1-1h0a1,1,0,0,1,1-1H20a1,1,0,0,0,1-1V3.52a1,1,0,0,0-1-1H1.18a1,1,0,0,1-1-1h0A1,1,0,0,1,1,.39ZM15.84,7.59v11.1a1,1,0,0,1-1,1H3.14a1,1,0,0,1-1-1V7.59a1,1,0,0,1,1-1H14.8a1,1,0,0,1,1,1S15.84,7.58,15.84,7.59ZM4.21,9.7v6.89a1,1,0,0,0,1,1h7.44a1,1,0,0,0,1-1V9.7a1,1,0,0,0-1-1H5.25a1,1,0,0,0-1,1S4.21,9.69,4.21,9.7Z" transform="translate(-0.03 -0.11)"/><path class="cls-1" d="M54.67,25.15H30.39a1,1,0,0,1-1-1h0a1,1,0,0,1,1-1H54.67a1,1,0,0,1,1,1h0A1,1,0,0,1,54.67,25.15Zm-.53-22.9H30.92a1,1,0,0,1-1-1h0a1,1,0,0,1,1-1H54.14a1,1,0,0,1,1,1h0A1,1,0,0,1,54.14,2.25ZM31.29,14.8V6.22a1,1,0,0,1,1-1H52.74a1,1,0,0,1,1,1V14.8a1,1,0,0,1-1,1H32.33a1,1,0,0,1-1-1S31.29,14.81,31.29,14.8ZM35.54,21l-1.7-1.7a1,1,0,0,1,0-1.41l0,0h0a1,1,0,0,1,1.41,0l0,0,1.7,1.7A1,1,0,0,1,37,21l0,0h0a1,1,0,0,1-1.41,0Zm16.13-8.35V8.32a1,1,0,0,0-1-1H34.43a1,1,0,0,0-1,1v4.37a1,1,0,0,0,1,1h16.2a1,1,0,0,0,1-1s0,0,0,0Zm-3.6,6.89,1.7-1.7a1,1,0,0,1,1.41,0l0,0h0a1,1,0,0,1,0,1.41l0,0L49.53,21a1,1,0,0,1-1.41,0l0,0h0a1,1,0,0,1,0-1.41h0Z" transform="translate(-0.03 -0.11)"/></g></g></svg>