<svg xmlns="http://www.w3.org/2000/svg" viewBox="0 0 108 29.3"><defs><style>.cls-1{fill:#fdd272;}.cls-2{fill:#ffb626;}.cls-3{fill:#f7931e;}.cls-4{fill:#fdc959;}.cls-5{fill:#f2ac24;}</style></defs><title>Asset 3</title><g id="Layer_2" data-name="Layer 2"><g id="Isolation_Mode" data-name="Isolation Mode"><path class="cls-1" d="M107.31,15A10,10,0,0,1,91,25.89a2.83,2.83,0,0,0,0-.52v-14A10,10,0,0,1,98,8.62a10.08,10.08,0,0,1,3.7.7,10.24,10.24,0,0,1,3.41,2.24A10.12,10.12,0,0,1,107.31,15Z" transform="translate(-0.02 -0.25)"/><path class="cls-2" d="M91,18.67v6.7a2.83,2.83,0,0,1,0,.52l-.12-.11A9.7,9.7,0,0,1,89.48,24a9.92,9.92,0,0,0,.85-1.67A10.08,10.08,0,0,0,91,18.67Z" transform="translate(-0.02 -0.25)"/><path class="cls-2" d="M91,11.41v7.26a10.08,10.08,0,0,0-.7-3.7,9.94,9.94,0,0,0-.85-1.67,9.71,9.71,0,0,1,1.39-1.74Z" transform="translate(-0.02 -0.25)"/><path class="cls-1" d="M91,4.44v7l-.16.15a9.71,9.71,0,0,0-1.39,1.74,10.1,10.1,0,0,0-1.39-1.74,10.24,10.24,0,0,0-3.41-2.24,10,10,0,0,0-2-.56V4.44a4.19,4.19,0,1,1,8.37,0Z" transform="translate(-0.02 -0.25)"/><path class="cls-1" d="M90.87,25.78l.12.11a4.09,4.09,0,0,1-1.18,2.44,4.18,4.18,0,0,1-5.93,0l0,0c.28-.08.55-.18.82-.28a10.23,10.23,0,0,0,3.41-2.24A10.1,10.1,0,0,0,89.48,24,9.7,9.7,0,0,0,90.87,25.78Z" transform="translate(-0.02 -0.25)"/><path class="cls-3" d="M90.32,15a10.08,10.08,0,0,1,0,7.4A9.92,9.92,0,0,1,89.48,24a10.06,10.06,0,0,1,0-10.73A9.94,9.94,0,0,1,90.32,15Z" transform="translate(-0.02 -0.25)"/><path class="cls-2" d="M89.48,13.3a10.07,10.07,0,0,0,0,10.73,10.1,10.1,0,0,1-1.39,1.74A10.23,10.23,0,0,1,84.68,28c-.27.1-.54.2-.82.28a4.18,4.18,0,0,1-1.2-2.92V8.76a10,10,0,0,1,2,.56,10.24,10.24,0,0,1,3.41,2.24A10.1,10.1,0,0,1,89.48,13.3Z" transform="translate(-0.02 -0.25)"/><path class="cls-1" d="M82.66,25.37a4.18,4.18,0,0,0,1.2,2.92,10,10,0,0,1-2.88.42,10.13,10.13,0,0,1-3.7-.7,10,10,0,0,1-3.4-2.24l-.38-.4h0v-9.2a4.19,4.19,0,0,0-1.05-2.77,9.63,9.63,0,0,1,1.44-1.83A10,10,0,0,1,81,8.62a9.78,9.78,0,0,1,1.68.14Z" transform="translate(-0.02 -0.25)"/><path class="cls-1" d="M73.5,25.36h0a4.18,4.18,0,0,1-7.15,3,4.12,4.12,0,0,1-1.19-2.44,4.15,4.15,0,0,0,0-1.26V16.16a4.18,4.18,0,0,1,.49-2,4.23,4.23,0,0,1,.74-1,4.18,4.18,0,0,1,5.92,0l.18.19a9.17,9.17,0,0,0-.8,1.58,10,10,0,0,0,0,7.4A9.7,9.7,0,0,0,73.5,25.36Z" transform="translate(-0.02 -0.25)"/><path class="cls-2" d="M73.5,16.16v9.2a9.7,9.7,0,0,1-1.85-3,10,10,0,0,1,0-7.4,9.17,9.17,0,0,1,.8-1.58A4.19,4.19,0,0,1,73.5,16.16Z" transform="translate(-0.02 -0.25)"/><path class="cls-1" d="M73.47,4a4.45,4.45,0,0,1,0,.56,4.21,4.21,0,0,1-.4,1.65,4.31,4.31,0,0,1-.93,1.27,4.18,4.18,0,0,1-4.66.71,4.12,4.12,0,0,1-1.26-.93A4.19,4.19,0,0,1,65.4,6a4.08,4.08,0,0,1-.28-1.66v0a2.14,2.14,0,0,1,0-.32c0-.08,0-.16,0-.24a1.93,1.93,0,0,1,0-.2c0-.09,0-.18.07-.27v0c0-.11.07-.22.11-.32a1.68,1.68,0,0,1,.08-.18.32.32,0,0,1,0-.08.2.2,0,0,1,0-.06l.13-.24a2.24,2.24,0,0,1,.18-.29A2,2,0,0,1,66,1.85l.08-.1.21-.23a.27.27,0,0,1,.07-.06,1.12,1.12,0,0,1,.18-.17l.15-.13A4.24,4.24,0,0,1,67.78.54l.3-.1.29-.08.15,0,.38-.05h.39l.4,0h0l.29,0,.2,0h.07l.19.05.09,0,.29.1L71,.6l.26.13.06,0a2.37,2.37,0,0,1,.26.16,1.41,1.41,0,0,1,.26.18l.21.16.12.11.18.18,0,0a1.7,1.7,0,0,1,.19.22,2.13,2.13,0,0,1,.2.27,2.74,2.74,0,0,1,.26.42c0,.08.08.15.11.23a1.26,1.26,0,0,1,.08.18,4,4,0,0,1,.13.41c0,.08,0,.16.06.24v.08A3.17,3.17,0,0,1,73.47,4Z" transform="translate(-0.02 -0.25)"/><path class="cls-1" d="M73.34,3.32c0,.08,0,.16.06.24C73.38,3.48,73.36,3.4,73.34,3.32Z" transform="translate(-0.02 -0.25)"/><path class="cls-1" d="M73,2.49a2,2,0,0,1,.11.23C73.1,2.65,73.06,2.57,73,2.49Z" transform="translate(-0.02 -0.25)"/><path class="cls-1" d="M72.27,1.47l.07.08-.18-.18Z" transform="translate(-0.02 -0.25)"/><path class="cls-1" d="M71.31.76a1.46,1.46,0,0,1,.26.16A2.37,2.37,0,0,0,71.31.76Z" transform="translate(-0.02 -0.25)"/><path class="cls-1" d="M71.11.66l.14.07L71,.6Z" transform="translate(-0.02 -0.25)"/><path class="cls-1" d="M70.56.44l.29.1Z" transform="translate(-0.02 -0.25)"/><path class="cls-1" d="M70.28.37l.19.05Z" transform="translate(-0.02 -0.25)"/><path class="cls-1" d="M70,.31l-.29,0A1.84,1.84,0,0,1,70,.31Z" transform="translate(-0.02 -0.25)"/><path class="cls-1" d="M68.91.27h0Z" transform="translate(-0.02 -0.25)"/><path class="cls-2" d="M65.16,25.88l0,.29a4.05,4.05,0,0,1-.66,1.57,4.17,4.17,0,0,1-1.11,1.1,4.31,4.31,0,0,1-1.45.62,4.18,4.18,0,0,1-1.69,0A3.75,3.75,0,0,1,58.92,29h0a2,2,0,0,1-.28-.17,4.08,4.08,0,0,1-1.11-1.11,4.15,4.15,0,0,1-.61-1.45,4,4,0,0,1,0-1.69A4.25,4.25,0,0,1,57.55,23a4.19,4.19,0,0,1,1.11-1.11,4.15,4.15,0,0,1,1.45-.61,4.07,4.07,0,0,1,1.7,0,4.16,4.16,0,0,1,1.19.43l.1.06a1.9,1.9,0,0,1,.27.17,4.21,4.21,0,0,1,1.73,2.56,1,1,0,0,1,0,.15v.75A2.74,2.74,0,0,0,65.16,25.88Z" transform="translate(-0.02 -0.25)"/><path class="cls-2" d="M65.11,11.17a4.22,4.22,0,0,1,0,1.7A4.36,4.36,0,0,1,64.68,14q-.09.17-.2.34a4.29,4.29,0,0,1-1.1,1.11,1.9,1.9,0,0,1-.27.17l-.1.06a4.18,4.18,0,0,1-1.19.43,4.07,4.07,0,0,1-1.7,0,4.12,4.12,0,0,1-2.56-1.73,4.24,4.24,0,0,1-.66-1.57,4,4,0,0,1,0-1.69,4.14,4.14,0,0,1,.61-1.45,4.08,4.08,0,0,1,1.11-1.11,2,2,0,0,1,.28-.17,3.75,3.75,0,0,1,1.29-.49,4.17,4.17,0,0,1,1.69,0,4.32,4.32,0,0,1,1.45.62,4.17,4.17,0,0,1,1.11,1.1A4,4,0,0,1,65.11,11.17Z" transform="translate(-0.02 -0.25)"/><path class="cls-4" d="M63,15.65l-5.22,3-4.19-2.42V11.42l5.33-3.07h0a2,2,0,0,0-.28.17,4.08,4.08,0,0,0-1.11,1.11,4.14,4.14,0,0,0-.61,1.45,4,4,0,0,0,0,1.69,4.24,4.24,0,0,0,.66,1.57,4.12,4.12,0,0,0,2.56,1.73,4.07,4.07,0,0,0,1.7,0A4.18,4.18,0,0,0,63,15.65Z" transform="translate(-0.02 -0.25)"/><path class="cls-4" d="M57.77,18.67l5.22,3a4.16,4.16,0,0,0-1.19-.43,4.07,4.07,0,0,0-1.7,0,4.15,4.15,0,0,0-1.45.61A4.19,4.19,0,0,0,57.55,23a4.25,4.25,0,0,0-.66,1.57,4,4,0,0,0,0,1.69,4.15,4.15,0,0,0,.61,1.45,4.08,4.08,0,0,0,1.11,1.11,2,2,0,0,0,.28.17h0l-5.37-3.1a3,3,0,0,0,0-.53V21.09Z" transform="translate(-0.02 -0.25)"/><path class="cls-2" d="M57.77,18.67l-4.19,2.42V16.25Z" transform="translate(-0.02 -0.25)"/><path class="cls-2" d="M53.58,21.09v4.28a3,3,0,0,1,0,.53l-6.13-3.55a4.19,4.19,0,0,0,1.19.43,4.36,4.36,0,0,0,1.7,0,4.1,4.1,0,0,0,1.19-.46Z" transform="translate(-0.02 -0.25)"/><path class="cls-3" d="M53.58,18.68v2.41l-2.09,1.21.25-.16A4.09,4.09,0,0,0,52.86,21a4.3,4.3,0,0,0,.66-1.57A4.45,4.45,0,0,0,53.58,18.68Z" transform="translate(-0.02 -0.25)"/><path class="cls-3" d="M53.58,16.25v2.43a4.38,4.38,0,0,0-.1-.91,4.18,4.18,0,0,0-.61-1.44,4.23,4.23,0,0,0-1.11-1.12l-.11-.07Z" transform="translate(-0.02 -0.25)"/><path class="cls-2" d="M53.58,11.42v4.83l-1.93-1.11-.16-.1a4.15,4.15,0,0,0-1.29-.49,4.36,4.36,0,0,0-1.7,0,4.28,4.28,0,0,0-1.1.42Z" transform="translate(-0.02 -0.25)"/><path class="cls-1" d="M47.39,15l-.34.21a3.94,3.94,0,0,0-1.11,1.1,4,4,0,0,0-.66,1.57.46.46,0,0,0,0,.1V16.16a4.08,4.08,0,0,0-.06-.7V5.18a3.61,3.61,0,0,0,.06-.59V4.41c0-.06,0-.11,0-.17a2.62,2.62,0,0,0,0-.28h0s0,0,0,0h0a4.18,4.18,0,0,1,8.34.5v7Z" transform="translate(-0.02 -0.25)"/><path class="cls-1" d="M47.41,22.35l6.13,3.55a4.18,4.18,0,0,1-8.3-.06,3.1,3.1,0,0,0,0-.47v-6a1.61,1.61,0,0,0,0,.2A4.27,4.27,0,0,0,47,22.13a1.9,1.9,0,0,0,.27.17Z" transform="translate(-0.02 -0.25)"/><path class="cls-3" d="M53.58,18.68a4.45,4.45,0,0,1-.07.79A4.3,4.3,0,0,1,52.86,21a4.09,4.09,0,0,1-1.12,1.1l-.25.16a4.1,4.1,0,0,1-1.19.46,4.36,4.36,0,0,1-1.7,0,4.19,4.19,0,0,1-1.19-.43l-.1-.06a1.9,1.9,0,0,1-.27-.17,4.27,4.27,0,0,1-1.73-2.56,1.61,1.61,0,0,1,0-.2V18a.46.46,0,0,1,0-.1,4,4,0,0,1,.66-1.57,3.94,3.94,0,0,1,1.11-1.1l.34-.21a4.28,4.28,0,0,1,1.1-.42,4.36,4.36,0,0,1,1.7,0,4.15,4.15,0,0,1,1.29.49l.16.1.11.07a4.23,4.23,0,0,1,1.11,1.12,4.18,4.18,0,0,1,.61,1.44A4.38,4.38,0,0,1,53.58,18.68Z" transform="translate(-0.02 -0.25)"/><path class="cls-3" d="M51.66,15.14l-.16-.1Z" transform="translate(-0.02 -0.25)"/><path class="cls-1" d="M45.28,19.37v6a3.1,3.1,0,0,1,0,.47,3.1,3.1,0,0,1,0-.47V18.68A3.34,3.34,0,0,0,45.28,19.37Z" transform="translate(-0.02 -0.25)"/><path class="cls-5" d="M45.28,18v1.4a3.34,3.34,0,0,1-.06-.7A3.42,3.42,0,0,1,45.28,18Z" transform="translate(-0.02 -0.25)"/><path class="cls-1" d="M45.28,16.16V18a3.42,3.42,0,0,0-.06.7V15.46A4.08,4.08,0,0,1,45.28,16.16Z" transform="translate(-0.02 -0.25)"/><path class="cls-1" d="M45.25,3.94s0,0,0,0Z" transform="translate(-0.02 -0.25)"/><path class="cls-1" d="M45.25,3.94V4h0a3.1,3.1,0,0,0,0,.47v.74a4.37,4.37,0,0,1-.34,1.05,4.19,4.19,0,0,1-.93,1.27,4.09,4.09,0,0,1-1.33.83,4.28,4.28,0,0,1-1.67.29,4.23,4.23,0,0,1-1.65-.41A4.14,4.14,0,0,1,38,7.29,4.19,4.19,0,0,1,37.19,6a4.14,4.14,0,0,1-.29-1.53v0a2.82,2.82,0,0,1,0-.37,0,0,0,0,1,0,0c0-.1,0-.19,0-.29a1.78,1.78,0,0,1,0-.2,1.81,1.81,0,0,1,.08-.3,2.08,2.08,0,0,1,.11-.32l.05-.13,0-.06a.32.32,0,0,1,0-.08l.12-.23,0-.05.09-.15L37.68,2l0,0a1.94,1.94,0,0,1,.19-.26l.21-.23a.27.27,0,0,1,.07-.06,1.15,1.15,0,0,1,.18-.17l0,0,.11-.09A4.23,4.23,0,0,1,39.57.54l.3-.1.29-.08.15,0L40.7.27h.39l.4,0h0l.29,0,.2,0h.07l.19.05.09,0,.29.1.14.06L43,.73l.06,0a2.37,2.37,0,0,1,.26.16,1.41,1.41,0,0,1,.26.18l.21.16.12.11.18.18,0,0a1.7,1.7,0,0,1,.19.22,3.34,3.34,0,0,1,.2.27l0,0a2.06,2.06,0,0,1,.16.26l0,0,0,0a1.72,1.72,0,0,1,.12.25,1.2,1.2,0,0,1,.08.18,2.27,2.27,0,0,1,.1.31c0,.11.07.23.09.34v0a2.48,2.48,0,0,1,0,.33Z" transform="translate(-0.02 -0.25)"/><path class="cls-1" d="M37.4,14.19a4.13,4.13,0,0,1,.74-1,4.18,4.18,0,0,1,5.92,0,4.12,4.12,0,0,1,1.16,2.26v9.91a3.1,3.1,0,0,0,0,.47,4.17,4.17,0,0,1-7.11,2.48,4.07,4.07,0,0,1-1.19-2.44,4,4,0,0,0,0-1.24V16.16A4.18,4.18,0,0,1,37.4,14.19Z" transform="translate(-0.02 -0.25)"/><path class="cls-1" d="M45.09,3.22a2.18,2.18,0,0,1,.09.34C45.16,3.45,45.13,3.33,45.09,3.22Z" transform="translate(-0.02 -0.25)"/><path class="cls-1" d="M44.79,2.48a1.41,1.41,0,0,1,.12.25A1.72,1.72,0,0,0,44.79,2.48Z" transform="translate(-0.02 -0.25)"/><path class="cls-1" d="M44.58,2.13a1.58,1.58,0,0,1,.16.26A2.06,2.06,0,0,0,44.58,2.13Z" transform="translate(-0.02 -0.25)"/><path class="cls-1" d="M44.55,2.08a3.34,3.34,0,0,0-.2-.27A2.13,2.13,0,0,1,44.55,2.08Z" transform="translate(-0.02 -0.25)"/><path class="cls-1" d="M44.06,1.47l.07.08L44,1.38Z" transform="translate(-0.02 -0.25)"/><path class="cls-1" d="M43.1.76a1.46,1.46,0,0,1,.26.16A2.37,2.37,0,0,0,43.1.76Z" transform="translate(-0.02 -0.25)"/><path class="cls-1" d="M42.9.66,43,.73,42.77.6Z" transform="translate(-0.02 -0.25)"/><path class="cls-1" d="M42.35.44l.29.1Z" transform="translate(-0.02 -0.25)"/><path class="cls-1" d="M42.07.37l.19.05Z" transform="translate(-0.02 -0.25)"/><path class="cls-1" d="M41.8.31l-.29,0A1.84,1.84,0,0,1,41.8.31Z" transform="translate(-0.02 -0.25)"/><path class="cls-1" d="M40.7.27h0Z" transform="translate(-0.02 -0.25)"/><path class="cls-2" d="M36.9,11.17a4.07,4.07,0,0,1,0,1.7A4.14,4.14,0,0,1,36.47,14q-.09.17-.2.34a4.29,4.29,0,0,1-1.1,1.11l-.27.17-.1.06a4.24,4.24,0,0,1-1.2.43,4,4,0,0,1-1.69,0,4.15,4.15,0,0,1-1.45-.61,4.23,4.23,0,0,1-1.76-2.68,4,4,0,0,1,0-1.69,4.16,4.16,0,0,1,1.72-2.56,2,2,0,0,1,.28-.17A4,4,0,0,1,32,7.86a4.17,4.17,0,0,1,1.69,0,4.32,4.32,0,0,1,1.45.62,4.18,4.18,0,0,1,1.77,2.67Z" transform="translate(-0.02 -0.25)"/><path class="cls-2" d="M30.7,29h0a2,2,0,0,1-.28-.17,4.16,4.16,0,0,1-1.72-2.56,4,4,0,0,1,0-1.69,4.22,4.22,0,0,1,1.76-2.68,4.15,4.15,0,0,1,1.45-.61,4,4,0,0,1,1.69,0,4.22,4.22,0,0,1,1.2.43l.1.06.27.17A4.29,4.29,0,0,1,36.26,23a4.15,4.15,0,0,1,.61,1.45,1.34,1.34,0,0,1,0,.18v.73a2.74,2.74,0,0,0,0,.51,1.88,1.88,0,0,1,0,.29,4.18,4.18,0,0,1-1.77,2.67,4.31,4.31,0,0,1-1.45.62,4.18,4.18,0,0,1-1.69,0A4,4,0,0,1,30.7,29Z" transform="translate(-0.02 -0.25)"/><path class="cls-1" d="M34.78,15.65l-5.22,3-4.19-2.42V11.42l5.32-3.07h0a2,2,0,0,0-.28.17,4.16,4.16,0,0,0-1.72,2.56,4,4,0,0,0,0,1.69,4.23,4.23,0,0,0,1.76,2.68,4.15,4.15,0,0,0,1.45.61,4,4,0,0,0,1.69,0A4.24,4.24,0,0,0,34.78,15.65Z" transform="translate(-0.02 -0.25)"/><path class="cls-1" d="M29.56,18.67l5.22,3a4.22,4.22,0,0,0-1.2-.43,4,4,0,0,0-1.69,0,4.15,4.15,0,0,0-1.45.61,4.22,4.22,0,0,0-1.76,2.68,4,4,0,0,0,0,1.69,4.16,4.16,0,0,0,1.72,2.56,2,2,0,0,0,.28.17h0l-5.36-3.1a3,3,0,0,0,0-.53V21.09Z" transform="translate(-0.02 -0.25)"/><path class="cls-2" d="M29.56,18.67l-4.19,2.42V16.25Z" transform="translate(-0.02 -0.25)"/><path class="cls-2" d="M25.37,21.09v4.28a3,3,0,0,1,0,.53l-6-3.45h0a4.13,4.13,0,0,0,2.72.32,4.09,4.09,0,0,0,1.19-.46Z" transform="translate(-0.02 -0.25)"/><path class="cls-3" d="M25.37,18.66v2.43l-2.09,1.21.25-.16A3.94,3.94,0,0,0,24.64,21a4,4,0,0,0,.66-1.57A3.87,3.87,0,0,0,25.37,18.66Z" transform="translate(-0.02 -0.25)"/><path class="cls-3" d="M25.37,16.25v2.41a4.23,4.23,0,0,0-1.82-3.45l-.11-.07Z" transform="translate(-0.02 -0.25)"/><path class="cls-2" d="M25.37,11.42v4.83l-1.93-1.11-.16-.1A4.15,4.15,0,0,0,22,14.55a4.36,4.36,0,0,0-1.7,0,3.82,3.82,0,0,0-.91.32h0Z" transform="translate(-0.02 -0.25)"/><path class="cls-1" d="M25.37,4.44v7l-6,3.47a10,10,0,0,0-2.2-3.32L17,11.4v-7a4.19,4.19,0,1,1,8.37,0Z" transform="translate(-0.02 -0.25)"/><path class="cls-1" d="M19.37,22.45l6,3.45a4.18,4.18,0,0,1-7.11,2.43A4.09,4.09,0,0,1,17,25.89l.12-.12A10,10,0,0,0,19.37,22.45Z" transform="translate(-0.02 -0.25)"/><path class="cls-3" d="M25.37,18.66a3.87,3.87,0,0,1-.08.81A4,4,0,0,1,24.64,21a3.94,3.94,0,0,1-1.11,1.1l-.25.16a4.09,4.09,0,0,1-1.19.46,4.13,4.13,0,0,1-2.72-.32l0-.07a10,10,0,0,0,0-7.4l0-.07a3.82,3.82,0,0,1,.91-.32,4.36,4.36,0,0,1,1.7,0,4.15,4.15,0,0,1,1.29.49l.16.1.11.07a4.17,4.17,0,0,1,1.82,3.45Z" transform="translate(-0.02 -0.25)"/><path class="cls-3" d="M23.45,15.14l-.16-.1Z" transform="translate(-0.02 -0.25)"/><path class="cls-3" d="M19.94,16.84a10,10,0,0,1-.54,5.53l0,.07h0l-.17-.09-.1-.06a1.87,1.87,0,0,1-.27-.17A4.22,4.22,0,0,1,17.71,21l-.06-.1.05-.08a7.54,7.54,0,0,0,1.18-5.65h0l.3-.19.18-.09h0l0,.07A10,10,0,0,1,19.94,16.84Z" transform="translate(-0.02 -0.25)"/><path class="cls-2" d="M19.38,14.9h0l-.18.09.18-.1h0Z" transform="translate(-0.02 -0.25)"/><path class="cls-2" d="M19.37,22.44h0l-.17-.1.17.09Z" transform="translate(-0.02 -0.25)"/><path class="cls-2" d="M19.37,22.45h0a10,10,0,0,1-2.2,3.32l-.12.12h0a2.83,2.83,0,0,1,0-.52V21.71a7.41,7.41,0,0,0,.65-.8l.06.1a4.22,4.22,0,0,0,1.11,1.12,1.87,1.87,0,0,0,.27.17l.1.06Z" transform="translate(-0.02 -0.25)"/><path class="cls-2" d="M19.18,15l-.3.19A7.54,7.54,0,0,0,17,11.47v-.06h0l.16.16a10,10,0,0,1,2.2,3.32h0Z" transform="translate(-0.02 -0.25)"/><path class="cls-3" d="M18.88,15.19a7.54,7.54,0,0,1-1.18,5.65l-.05.08a4.17,4.17,0,0,1-.55-1.34,4.37,4.37,0,0,1,0-1.7,4.29,4.29,0,0,1,.65-1.57,4.08,4.08,0,0,1,1.12-1.1l0,0Z" transform="translate(-0.02 -0.25)"/><path class="cls-2" d="M18.88,15.18l0,0a4.08,4.08,0,0,0-1.12,1.1,4.29,4.29,0,0,0-.65,1.57,4.38,4.38,0,0,0-.07.79V11.47A7.54,7.54,0,0,1,18.88,15.18Z" transform="translate(-0.02 -0.25)"/><path class="cls-2" d="M17.1,19.57a4.17,4.17,0,0,0,.55,1.34,7.41,7.41,0,0,1-.65.8V18.66A4.42,4.42,0,0,0,17.1,19.57Z" transform="translate(-0.02 -0.25)"/><path class="cls-1" d="M17,25.89h0A10,10,0,0,1,4.41,27a7.54,7.54,0,0,1,8.41-12.5,5,5,0,0,0-6.19,7.87,5,5,0,0,0,.61.49l.09.06,0,0A7.53,7.53,0,0,0,17,21.71v3.65A2.83,2.83,0,0,0,17,25.89Z" transform="translate(-0.02 -0.25)"/><path class="cls-1" d="M17,18.66v3.06A7.53,7.53,0,0,1,7.36,22.9a5,5,0,0,0,.63.34,5,5,0,0,0,6.72-6.47,5,5,0,0,0-.37-.74l1.18-.19h.05a.59.59,0,0,0-.18-1.17h-.06L14,14.89l.27-1.31v-.05h0a.59.59,0,0,0-1.16-.24h0v0h0l-.24,1.17-.07,0A7.54,7.54,0,0,0,4.41,27,10,10,0,1,1,15.75,10.39l.12.08a7.48,7.48,0,0,1,1.13,1Z" transform="translate(-0.02 -0.25)"/><path class="cls-1" d="M15.87,10.47l-.12-.08Z" transform="translate(-0.02 -0.25)"/><path class="cls-1" d="M15.4,14.68h0Z" transform="translate(-0.02 -0.25)"/><path class="cls-1" d="M13.14,13.3v0Z" transform="translate(-0.02 -0.25)"/><path class="cls-1" d="M7.32,22.88l-.09-.06Z" transform="translate(-0.02 -0.25)"/></g></g></svg>