<svg xmlns="http://www.w3.org/2000/svg" viewBox="0 0 48 48"><defs><style>.cls-1{fill:#ffb626;}.cls-2{fill:#fdd272;}.cls-3{fill:#fff;}</style></defs><title>Asset 1</title><g id="Layer_2" data-name="Layer 2"><g id="Isolation_Mode" data-name="Isolation Mode"><path class="cls-1" d="M47.76,19.79A24,24,0,0,1,33,46.47,24,24,0,0,1,10.65,44l-.17-.12A18,18,0,0,1,30.21,13.79a12,12,0,0,0-2.27-1,12.08,12.08,0,0,0-8,.14,12,12,0,0,0-6.4,16.89A11.79,11.79,0,0,0,16,32.92a12,12,0,0,0,1.45,1.16l.51.33A18,18,0,0,0,38.4,4.84a24,24,0,0,1,9.36,15Z" transform="translate(-0.16 -0.16)"/><path class="cls-2" d="M37.21,17.44a1.41,1.41,0,0,0,1-.54,1.41,1.41,0,0,0-1.41-2.25l-3.15.49L34.26,12l0-.13a1.42,1.42,0,0,0-.2-1,1.41,1.41,0,0,0-2.57.4.75.75,0,0,0,0,.13l-.58,2.8c-.23-.16-.47-.31-.7-.45A18,18,0,0,0,10.48,43.87,24,24,0,0,1,.56,28.53a24,24,0,0,1,1.29-13.2A24,24,0,0,1,19.79.56a24.24,24.24,0,0,1,8.74,0A24.09,24.09,0,0,1,33,1.85a23.68,23.68,0,0,1,4.84,2.6l.56.4A18,18,0,0,1,17.92,34.41a10.54,10.54,0,0,0,1.31.68,12,12,0,0,0,16.44-7.49,12.2,12.2,0,0,0,.49-4.13,12,12,0,0,0-1.76-5.59Z" transform="translate(-0.16 -0.16)"/><path class="cls-3" d="M36.76,14.65a1.41,1.41,0,1,1,.44,2.79l-2.82.44a12,12,0,0,1,1.76,5.59,12.2,12.2,0,0,1-.49,4.13,12,12,0,0,1-16.44,7.49,10.54,10.54,0,0,1-1.31-.68l-.51-.33A12,12,0,0,1,16,32.92a11.79,11.79,0,0,1-2.39-3.12,12,12,0,0,1-1.15-8.12A12.14,12.14,0,0,1,13.85,18a12,12,0,0,1,16.36-4.23c.24.14.47.29.7.45l.58-2.8a.75.75,0,0,1,0-.13,1.41,1.41,0,0,1,2.76.56l0,.13-.64,3.12Z" transform="translate(-0.16 -0.16)"/></g></g></svg>