<svg id="Layer_1" data-name="Layer 1" xmlns="http://www.w3.org/2000/svg" xmlns:xlink="http://www.w3.org/1999/xlink" viewBox="0 0 158 209"><defs><style>.cls-1{fill:none;}.cls-2{clip-path:url(#clip-path);}.cls-3{fill:#d3d3d3;}.cls-4{fill:#f9ddd2;}.cls-5{fill:#362c22;}.cls-6{fill:#f2f0ec;}.cls-7{fill:#fff;}.cls-8{fill:#edc9c3;}.cls-9{fill:#f7c5be;}.cls-10{fill:#231f20;}</style><clipPath id="clip-path"><circle class="cls-1" cx="83.77" cy="85.3" r="108.12"/></clipPath></defs><title>Artboard 1</title><g id="Layer_2" data-name="Layer 2"><g id="Art"><g class="cls-2"><path class="cls-3" d="M122.51,24.23s12.9,8.66,18.88,19.77C147,54.47,140.21,68,129,68c-3.93,0-8.08-1.79-11.44-7.26,0,0-13.75-29-9.81-35.91S122.51,24.23,122.51,24.23Z"/><path class="cls-3" d="M37.77,24.23S24.88,32.89,18.9,44c-5.65,10.47,1.18,24,12.39,24,3.93,0,8.08-1.79,11.44-7.26,0,0,13.75-29,9.81-35.91S37.77,24.23,37.77,24.23Z"/><path class="cls-4" d="M146.08,85.05a15.7,15.7,0,0,1-13.18,15.49,15.91,15.91,0,0,1-2.52.2,15.69,15.69,0,1,1,0-31.38h0a15.91,15.91,0,0,1,2.52.2A15.69,15.69,0,0,1,146.08,85.05Z"/><path class="cls-5" d="M28,199.39V182.14a44.08,44.08,0,0,1,32.66-42.58c.69-.19,1.38-.36,2.09-.51a43,43,0,0,1,5.73-.84c1.19-.1,2.39-.15,3.61-.15H100.8a44.15,44.15,0,0,1,9.35,1l.52.12c.51.11,1,.24,1.52.37h0a43.77,43.77,0,0,1,13.68,6.35c11.47,8,20.21,32.5,20.21,47.52"/><path class="cls-6" d="M112.29,139.05l-.11.5L98.12,204.94l-2.19.17c-1,.07-2.06.13-3.11.18q-3.19.15-6.41.15t-6.57-.16c-1,0-2-.1-3-.18l-2.2-.16L60.58,139.56l-.11-.51Z"/><path class="cls-7" d="M95.94,205.11c-1,.07-7.37,33.6-9.52,33.6s-8.54-33.54-9.53-33.61"/><path class="cls-7" d="M83.77,155.11,63.08,170.34l-6.27-29.17,12.81-7.55"/><path class="cls-7" d="M91.41,155.82l19.76,14.53,6.27-29.17-14.89-8.77"/><path class="cls-4" d="M46.68,85.05A15.7,15.7,0,0,1,33.5,100.54a15.91,15.91,0,0,1-2.52.2,15.69,15.69,0,1,1,0-31.38h0a15.91,15.91,0,0,1,2.52.2A15.69,15.69,0,0,1,46.68,85.05Z"/><path class="cls-4" d="M103.29,138.39v1.31a16.87,16.87,0,0,1-11.88,16.12A16.87,16.87,0,0,1,79.66,141.9q1.69.1,3.4.1A58.23,58.23,0,0,0,103.29,138.39Z"/><path class="cls-8" d="M103.29,119v20.7a16.87,16.87,0,1,1-33.75,0V119Z"/><path class="cls-8" d="M132.09,62V82.72c0,27.08-19.06,49.55-44,53.72h-.26a49.65,49.65,0,0,1-8.16.66c-29,0-52.43-24.37-52.43-54.42V62a56,56,0,0,1,3-18.06C37.41,22.76,56.85,7.57,79.7,7.57h0a50.66,50.66,0,0,1,8.16.66C112.9,12.31,132.09,34.84,132.09,62Z"/><path class="cls-4" d="M132.09,62V82.72c0,27.08-19.06,49.55-44,53.72h-.26c-25.08-4.07-44.26-26.59-44.26-53.76V62c0-27.17,19.18-49.7,44.27-53.77C112.9,12.31,132.09,34.84,132.09,62Z"/><path d="M71.39,75.91a6.62,6.62,0,1,1-6.62-6.62h0A6.62,6.62,0,0,1,71.39,75.91Z"/><path d="M114.7,75.91a6.62,6.62,0,1,1-6.62-6.62h0A6.62,6.62,0,0,1,114.7,75.91Z"/><path class="cls-7" d="M70,74.74a2.84,2.84,0,1,1-2.84-2.84A2.84,2.84,0,0,1,70,74.74Z"/><path class="cls-7" d="M113.67,74.74a2.84,2.84,0,1,1-2.84-2.84,2.84,2.84,0,0,1,2.84,2.84Z"/><ellipse class="cls-9" cx="55.8" cy="96.3" rx="5.96" ry="4.44"/><ellipse class="cls-9" cx="114.7" cy="96.3" rx="5.96" ry="4.44"/><path class="cls-8" d="M90.06,94.83H82.78c-.87,0-1.57-1.07-1.57-2.38s.7-2.38,1.57-2.38h7.28c.87,0,1.57,1.07,1.57,2.38S90.92,94.83,90.06,94.83Z"/><path class="cls-4" d="M102.67,139.55v1.24A15.92,15.92,0,0,1,91.46,156a15.91,15.91,0,0,1-11.08-13.13q1.59.1,3.21.1a54.93,54.93,0,0,0,19.08-3.41Z"/><path class="cls-10" d="M63.84,91.42A15.39,15.39,0,1,1,79.23,76,15.39,15.39,0,0,1,63.84,91.42Zm0-28.54A13.15,13.15,0,1,0,77,76v0A13.17,13.17,0,0,0,63.84,62.88Z"/><path class="cls-10" d="M107.13,91.42A15.39,15.39,0,1,1,122.51,76a15.39,15.39,0,0,1-15.38,15.42Zm0-28.54A13.15,13.15,0,1,0,120.28,76v0A13.17,13.17,0,0,0,107.13,62.88Z"/><rect class="cls-10" x="78.11" y="74.92" width="14.74" height="2.23"/><rect class="cls-10" x="26.11" y="67.94" width="25.44" height="2.23" transform="translate(-1.2 0.69) rotate(-1)"/><rect class="cls-10" x="120.39" y="68.44" width="12.51" height="2.23" transform="translate(-1.25 2.33) rotate(-1.05)"/><path class="cls-7" d="M86.55,117c5.23,0,9.46-3.41,9.46-7.62H77.09C77.09,113.55,81.32,117,86.55,117Z"/><path class="cls-8" d="M86.55,119.23c-6.47,0-11.73-4.44-11.73-9.89a2.27,2.27,0,0,1,2.27-2.27H96a2.27,2.27,0,0,1,2.27,2.27h0C98.28,114.79,93,119.23,86.55,119.23ZM80,111.6a8.42,8.42,0,0,0,13,0Z"/><path class="cls-3" d="M103.37,112.5H69.73v-4a9.76,9.76,0,0,1,9.76-9.76H93.62a9.76,9.76,0,0,1,9.76,9.76h0Z"/><circle class="cls-7" cx="86.99" cy="168.87" r="3.87"/><circle class="cls-7" cx="86.99" cy="185.07" r="3.87"/></g></g></g></svg>